# xmcd
#
# Track frame offsets:
#	150
#	14115
#	26117
#	41500
#	55912
#	74814
#	102875
#	113180
#	121879
#	140255
#	164496
#	178319
#	192675
#	205812
#	217933
#	237029
#	256916
#	274464
#	287501
#	298768
#
# Disc length: 4300 seconds
#
# Revision: 0
# Processed by: cddbd v1.4PL0 Copyright (c) Steve Scherf et al.
# Submitted via: audiograbber 1.80
#
DISCID=4210ca14
DTITLE=Best Of Jazz And Blues [CD2) - Best Of Jazz And Blues
DYEAR=1900
DGENRE=
TTITLE0=Duke Ellington - Slippery Horn
TTITLE1=Stan Kenton - Balboa Bash
TTITLE2=Louis Armstrong - Ain't Missbehavin'
TTITLE3=Andrew Siters - Pennsylvania 6-5000
TTITLE4=Big Daddy Rucker - Best Friend Blues
TTITLE5=Gerry Mulligan - Blight Of The Fumble Bee
TTITLE6=Art Tatum - I Got Rythm
TTITLE7=B. B. King - New Way Of  Driving
TTITLE8=Sonny Stitt - Old Folks
TTITLE9=Mc Coy Tyner - What's New
TTITLE10=Count Basie - Stop Beatin' Round The Bluberry Bush
TTITLE11=Johnny Otis - Sherry Read
TTITLE12=Jimmy Hammilton - Departing Lovers
TTITLE13=Coleman Hawkins - Cattin' At Keynotes
TTITLE14=Dizzy Gillespie - Sweet Stuff
TTITLE15=Chick and Lionel - Moments Notice
TTITLE16=Paul Horn - Nature Boy
TTITLE17=Sidney Bechet - Coal Cart Blues
TTITLE18=Ella Fitzgerald - Vote For Mr Rythm
TTITLE19=Johnny Griffin - Coming On The Hudson
EXTD=
EXTT0=
EXTT1=
EXTT2=
EXTT3=
EXTT4=
EXTT5=
EXTT6=
EXTT7=
EXTT8=
EXTT9=
EXTT10=
EXTT11=
EXTT12=
EXTT13=
EXTT14=
EXTT15=
EXTT16=
EXTT17=
EXTT18=
EXTT19=
PLAYORDER=
